<svg xmlns="http://www.w3.org/2000/svg" xmlns:xlink="http://www.w3.org/1999/xlink" viewBox="0,0,256,256" width="80px" height="80px"><g fill="#ffffff" fill-rule="nonzero" stroke="none" stroke-width="1" stroke-linecap="butt" stroke-linejoin="miter" stroke-miterlimit="10" stroke-dasharray="" stroke-dashoffset="0" font-family="none" font-weight="none" font-size="none" text-anchor="none" style="mix-blend-mode: normal"><g transform="scale(3.2,3.2)"><path d="M40.05664,10c-8.21414,0 -15.04227,2.89747 -19.75781,8.13086c-4.71554,5.23339 -7.29883,12.7415 -7.29883,21.84961c0,9.10605 2.53407,16.62196 7.22656,21.86719c4.69249,5.24523 11.52339,8.15234 19.83008,8.15234c8.25211,0 15.05541,-2.91846 19.73242,-8.16797c4.67701,-5.24951 7.21094,-12.76412 7.21094,-21.85156c0,-9.106 -2.55327,-16.61311 -7.24023,-21.84766c-4.68696,-5.23454 -11.48947,-8.13281 -19.70312,-8.13281zM40.05664,12c7.74834,0 13.91885,2.67109 18.21289,7.4668c4.29404,4.79571 6.73047,11.78067 6.73047,20.51367c0,8.71656 -2.41814,15.71199 -6.70312,20.52148c-4.28499,4.80949 -10.45435,7.49805 -18.24023,7.49805c-7.84532,0 -14.04184,-2.68205 -18.33984,-7.48633c-4.29801,-4.80427 -6.7168,-11.79725 -6.7168,-20.5332c0,-8.73089 2.46295,-15.71291 6.78516,-20.50977c4.32221,-4.79686 10.52263,-7.4707 18.27148,-7.4707zM40.05664,19c-0.36064,-0.0051 -0.69608,0.18438 -0.87789,0.49587c-0.18181,0.3115 -0.18181,0.69676 0,1.00825c0.18181,0.3115 0.51725,0.50097 0.87789,0.49587c4.62976,0 8.27598,1.78827 10.85938,5.03125c2.58339,3.24298 4.08398,8.00608 4.08398,13.94922c0,5.52447 -1.29693,10.05338 -3.5625,13.27734c-2.26557,3.22397 -5.47092,5.18361 -9.54883,5.64063c-0.35524,0.03969 -0.66232,0.26591 -0.80551,0.59343c-0.14319,0.32752 -0.10075,0.70656 0.11134,0.99429c0.21209,0.28773 0.5616,0.44043 0.91682,0.40056c4.60409,-0.51599 8.39896,-2.82998 10.96289,-6.47852c2.56393,-3.64853 3.92578,-8.5912 3.92578,-14.42773c0,-6.27887 -1.57842,-11.50524 -4.51953,-15.19727c-2.94111,-3.69202 -7.26559,-5.7832 -12.42383,-5.7832zM36.0957,19.47852l-0.80078,0.40234l-0.1582,0.88281l0.61328,0.6543l0.3457,0.06055l0.80078,-0.40039l0.1582,-0.88281l-0.61133,-0.6543zM32.39258,20.94922l-0.80078,0.40039l-0.1582,0.88281l0.61328,0.6543l0.3457,0.0625l0.80078,-0.40234l0.1582,-0.88086l-0.61133,-0.6543zM29.25,23.39648l-0.80078,0.40234l-0.1582,0.88086l0.61328,0.65625l0.3457,0.06055l0.80078,-0.40039l0.1582,-0.88281l-0.61133,-0.6543zM26.88281,26.60547l-0.80078,0.40039l-0.1582,0.88281l0.61133,0.6543l0.34766,0.0625l0.80078,-0.40234l0.1582,-0.88086l-0.61328,-0.6543zM25.28125,30.26172l-0.80078,0.40039l-0.1582,0.88281l0.61133,0.6543l0.34766,0.0625l0.80078,-0.40234l0.1582,-0.88086l-0.61133,-0.65625zM24.36914,34.15039l-0.80273,0.40039l-0.15625,0.88281l0.61133,0.6543l0.34766,0.0625l0.80078,-0.40234l0.1582,-0.88086l-0.61328,-0.65625zM24.02734,38.13086l-0.80078,0.40234l-0.1582,0.88086l0.61133,0.6543l0.34766,0.0625l0.80078,-0.40039l0.1582,-0.88281l-0.61133,-0.6543zM24.16016,42.125l-0.80078,0.40234l-0.1582,0.88086l0.61328,0.6543l0.3457,0.0625l0.80078,-0.40039l0.1582,-0.88281l-0.61133,-0.6543zM24.80664,46.06641l-0.80078,0.40234l-0.1582,0.88281l0.61328,0.6543l0.3457,0.06055l0.80078,-0.40039l0.1582,-0.88281l-0.61133,-0.6543zM26.08398,49.84961l-0.80078,0.40234l-0.1582,0.88086l0.61133,0.6543l0.34766,0.0625l0.80078,-0.40039l0.1582,-0.88281l-0.61328,-0.6543zM28.09766,53.29297l-0.80078,0.40234l-0.1582,0.88086l0.61133,0.6543l0.34766,0.0625l0.80078,-0.40039l0.1582,-0.88281l-0.61328,-0.6543zM30.91797,56.10938l-0.80273,0.40039l-0.15625,0.88281l0.61133,0.6543l0.34766,0.0625l0.80078,-0.40234l0.1582,-0.88281l-0.61328,-0.6543zM34.41406,58.01563l-0.80078,0.40039l-0.1582,0.88281l0.61328,0.6543l0.3457,0.0625l0.80273,-0.40234l0.15625,-0.88086l-0.61133,-0.65625zM38.30078,58.91211l-0.80273,0.40234l-0.15625,0.88086l0.61133,0.6543l0.34766,0.0625l0.80078,-0.40039l0.1582,-0.88281l-0.61328,-0.6543z"></path></g></g></svg>