<svg xmlns="http://www.w3.org/2000/svg"  viewBox="0 0 80 80" width="80px" height="80px"><path d="M 40.056641 10 C 31.842498 10 25.014373 12.897467 20.298828 18.130859 C 15.583284 23.364252 13 30.872356 13 39.980469 C 13 49.086519 15.53407 56.60243 20.226562 61.847656 C 24.919055 67.092883 31.749957 70 40.056641 70 C 48.308754 70 55.11205 67.081538 59.789062 61.832031 C 64.466076 56.582525 67 49.067914 67 39.980469 C 67 30.874467 64.446729 23.367355 59.759766 18.132812 C 55.072802 12.898271 48.270297 10 40.056641 10 z M 40.056641 12 C 47.804984 12 53.975495 14.671088 58.269531 19.466797 C 62.563568 24.262505 65 31.24747 65 39.980469 C 65 48.697024 62.581862 55.69246 58.296875 60.501953 C 54.011888 65.311447 47.842528 68 40.056641 68 C 32.211324 68 26.014804 65.317946 21.716797 60.513672 C 17.41879 55.709398 15 48.716418 15 39.980469 C 15 31.249582 17.462951 24.267561 21.785156 19.470703 C 26.107362 14.673845 32.307783 12 40.056641 12 z M 40.056641 19 A 1.0001 1.0001 0 1 0 40.056641 21 C 44.686406 21 48.332624 22.788274 50.916016 26.03125 C 53.499408 29.274226 55 34.037335 55 39.980469 C 55 45.504938 53.703073 50.033844 51.4375 53.257812 C 49.171927 56.481781 45.96658 58.441422 41.888672 58.898438 A 1.0003546 1.0003546 0 1 0 42.111328 60.886719 C 46.71542 60.370734 50.510292 58.056735 53.074219 54.408203 C 55.638145 50.759671 57 45.817 57 39.980469 C 57 33.701602 55.421577 28.475227 52.480469 24.783203 C 49.539361 21.09118 45.214876 19 40.056641 19 z M 36.095703 19.478516 L 35.294922 19.880859 L 35.136719 20.763672 L 35.75 21.417969 L 36.095703 21.478516 L 36.896484 21.078125 L 37.054688 20.195312 L 36.443359 19.541016 L 36.095703 19.478516 z M 32.392578 20.949219 L 31.591797 21.349609 L 31.433594 22.232422 L 32.046875 22.886719 L 32.392578 22.949219 L 33.193359 22.546875 L 33.351562 21.666016 L 32.740234 21.011719 L 32.392578 20.949219 z M 29.25 23.396484 L 28.449219 23.798828 L 28.291016 24.679688 L 28.904297 25.335938 L 29.25 25.396484 L 30.050781 24.996094 L 30.208984 24.113281 L 29.597656 23.458984 L 29.25 23.396484 z M 26.882812 26.605469 L 26.082031 27.005859 L 25.923828 27.888672 L 26.535156 28.542969 L 26.882812 28.605469 L 27.683594 28.203125 L 27.841797 27.322266 L 27.228516 26.667969 L 26.882812 26.605469 z M 25.28125 30.261719 L 24.480469 30.662109 L 24.322266 31.544922 L 24.933594 32.199219 L 25.28125 32.261719 L 26.082031 31.859375 L 26.240234 30.978516 L 25.628906 30.322266 L 25.28125 30.261719 z M 24.369141 34.150391 L 23.566406 34.550781 L 23.410156 35.433594 L 24.021484 36.087891 L 24.369141 36.150391 L 25.169922 35.748047 L 25.328125 34.867188 L 24.714844 34.210938 L 24.369141 34.150391 z M 24.027344 38.130859 L 23.226562 38.533203 L 23.068359 39.414062 L 23.679688 40.068359 L 24.027344 40.130859 L 24.828125 39.730469 L 24.986328 38.847656 L 24.375 38.193359 L 24.027344 38.130859 z M 24.160156 42.125 L 23.359375 42.527344 L 23.201172 43.408203 L 23.814453 44.0625 L 24.160156 44.125 L 24.960938 43.724609 L 25.119141 42.841797 L 24.507812 42.1875 L 24.160156 42.125 z M 24.806641 46.066406 L 24.005859 46.46875 L 23.847656 47.351562 L 24.460938 48.005859 L 24.806641 48.066406 L 25.607422 47.666016 L 25.765625 46.783203 L 25.154297 46.128906 L 24.806641 46.066406 z M 26.083984 49.849609 L 25.283203 50.251953 L 25.125 51.132812 L 25.736328 51.787109 L 26.083984 51.849609 L 26.884766 51.449219 L 27.042969 50.566406 L 26.429688 49.912109 L 26.083984 49.849609 z M 28.097656 53.292969 L 27.296875 53.695312 L 27.138672 54.576172 L 27.75 55.230469 L 28.097656 55.292969 L 28.898438 54.892578 L 29.056641 54.009766 L 28.443359 53.355469 L 28.097656 53.292969 z M 30.917969 56.109375 L 30.115234 56.509766 L 29.958984 57.392578 L 30.570312 58.046875 L 30.917969 58.109375 L 31.71875 57.707031 L 31.876953 56.824219 L 31.263672 56.169922 L 30.917969 56.109375 z M 34.414062 58.015625 L 33.613281 58.416016 L 33.455078 59.298828 L 34.068359 59.953125 L 34.414062 60.015625 L 35.216797 59.613281 L 35.373047 58.732422 L 34.761719 58.076172 L 34.414062 58.015625 z M 38.300781 58.912109 L 37.498047 59.314453 L 37.341797 60.195312 L 37.953125 60.849609 L 38.300781 60.912109 L 39.101562 60.511719 L 39.259766 59.628906 L 38.646484 58.974609 L 38.300781 58.912109 z"/></svg>